<svg width="214" height="100" viewBox="0 0 214 100" fill="none" xmlns="http://www.w3.org/2000/svg">
<path d="M61.3096 46.7311C63.4595 46.473 65.0366 44.8866 64.8323 43.1869C64.7303 42.3393 64.2039 41.6237 63.4353 41.1521C65.5146 39.1183 66.5329 38.1464 66.5329 38.1464H59.8141C57.3468 38.1464 55.3464 40.1468 55.3464 42.6141V49.163C56.4456 48.0648 57.4602 47.0531 58.3939 46.1257C59.1728 46.6206 60.2097 46.8629 61.3096 46.7311Z" fill="#CDCBFF"/>
<path d="M35.1675 43.187C34.9633 44.8857 36.5405 46.4721 38.6904 46.7312C39.7913 46.863 40.8282 46.6215 41.6061 46.1259C42.5398 47.0532 43.5544 48.0651 44.6535 49.1633V42.6144C44.6535 40.147 42.653 38.1466 40.1857 38.1466H33.4669C33.4669 38.1466 34.4862 39.1176 36.5645 41.1523C35.796 41.6237 35.2697 42.3394 35.1675 43.187Z" fill="#CDCBFF"/>
<path d="M9.61962 26.3193C6.987 32.2111 5.86749 39.1322 6.29185 46.8908L6.44399 49.682L10.2007 48.7807C10.1978 51.0865 10.3538 54.4514 11.0353 58.2834C11.7732 62.4329 12.9792 66.2833 14.6184 69.7253C16.6939 74.0826 19.4714 77.7948 22.8734 80.7569L25.105 82.6998L26.3861 80.2389C27.4852 81.8244 28.9751 83.8211 30.8214 85.959C34.7563 90.5149 41.1326 96.5924 49.164 99.6788L49.9994 100L50.8358 99.6788C58.8664 96.5931 65.2427 90.5149 69.1776 85.959C71.0239 83.8211 72.5138 81.8244 73.6128 80.2389L74.8938 82.6998L77.1254 80.7569C80.5276 77.7948 83.3049 74.0836 85.3805 69.7253C87.0198 66.2823 88.2258 62.4329 88.9637 58.2834C89.645 54.4516 89.801 51.0856 89.7981 48.7807L93.5548 49.682L93.708 46.8908C94.1322 39.1323 93.0128 32.2111 90.3801 26.3185C88.2479 21.5461 85.1336 17.4525 81.1243 14.1506C78.2791 11.8077 75.3987 10.2064 72.9862 9.13144L79.6047 6.20556L75.8813 3.87465C71.774 1.30429 66.6871 0 60.761 0C55.752 0 51.5851 0.946907 50.0004 1.36268C48.4149 0.946907 44.248 0 39.2398 0C33.3148 0 28.2269 1.30429 24.1192 3.87465L20.3958 6.20556L27.0145 9.13144C24.6028 10.2064 21.7214 11.8077 18.8773 14.1506C14.8662 17.4534 11.7519 21.547 9.61962 26.3193ZM10.8664 43.8275C10.8599 40.4532 11.1941 37.2869 11.8596 34.3488C14.6926 34.2514 17.0858 34.9384 18.9906 36.4031C20.4388 37.516 21.1823 38.7758 21.4116 39.2149C20.7116 42.554 20.6811 45.037 20.6801 45.2728L20.6754 46.1806L23.3543 49.1241C22.8772 49.2679 22.3805 49.4425 21.87 49.6551C19.865 50.4886 17.4004 52.0231 15.2338 54.833C14.6202 49.7711 14.9627 46.0682 14.9664 46.0275L15.2895 42.7664L10.8664 43.8275ZM32.7345 27.786C36.7957 24.4795 42.4526 23.517 49.5464 24.9251L50.0003 25.0152L50.4543 24.9251C57.548 23.517 63.204 24.4796 67.2661 27.786C73.3231 32.7171 74.4203 41.6265 74.6171 44.428L66.6423 53.1909C64.9593 50.5084 63.2467 48.764 63.1028 48.6193L59.7982 51.9073C59.8131 51.9222 61.2975 53.437 62.7167 55.7039C63.9978 57.7479 65.4914 60.839 65.3354 63.9534C65.2222 66.2175 64.2724 68.2095 62.441 70.0123L61.3298 69.6029L50.7763 65.7144C50.9695 64.1856 51.4039 62.3132 52.3823 61.6227C54.1433 60.3796 57.1472 58.4117 52.3823 58.1008C52.3823 58.1008 51.2433 58.7228 49.9994 58.7228C48.7564 58.7228 47.6174 58.1008 47.6174 58.1008C42.8525 58.4118 45.8564 60.3798 47.6174 61.6227C48.5958 62.3132 49.0302 64.1856 49.2232 65.7144L38.6707 69.6021L37.5595 70.0114C35.7327 68.2134 34.7831 66.2259 34.6661 63.9692C34.3515 57.9029 40.1466 51.9638 40.2052 51.9044L38.5501 50.2632L40.2024 51.9071L36.8989 48.6191C36.755 48.764 35.0423 50.5082 33.3594 53.1908L25.3847 44.4279C25.5804 41.622 26.6794 32.7159 32.7345 27.786ZM57.3106 76.057C57.2539 76.0913 57.1612 76.1304 56.9383 76.1304C56.4046 76.1304 55.5997 75.902 54.7475 75.6607C53.4471 75.2923 51.8282 74.8337 50.0004 74.8337C48.1726 74.8337 46.5537 75.2923 45.2533 75.6607C44.4011 75.9021 43.5963 76.1304 43.0626 76.1304C42.8408 76.1304 42.7469 76.0915 42.6912 76.057C42.4471 75.7097 42.398 74.453 42.6058 73.1191L50.0004 70.3946L57.3942 73.1191C57.5901 74.387 57.5724 75.6866 57.3106 76.057ZM81.1413 67.789C79.812 70.5646 78.1616 73.028 76.2178 75.1454L73.9064 70.7103L71.7936 74.4521C71.7714 74.4911 69.5268 78.44 65.5834 82.9895C62.1508 86.9494 56.7121 92.1683 50.0006 94.9902C43.2891 92.1683 37.8495 86.9494 34.4177 82.9895C30.4743 78.44 28.2299 74.4911 28.2084 74.453L26.0975 70.7009L23.7841 75.1446C21.8394 73.028 20.1899 70.5634 18.8605 67.788C17.9722 65.9342 17.2259 63.9375 16.6252 61.8212C19.5604 54.3959 24.8896 53.2857 27.02 53.1502L31.1211 57.6568C30.371 59.6647 29.8948 61.8843 30.0099 64.1844C30.2085 68.1491 32.0799 71.6134 35.5711 74.4818L36.6033 75.3292L37.811 74.8846C37.8499 76.7365 38.3484 78.7334 40.0296 79.8834C40.9095 80.4859 41.9297 80.7904 43.0632 80.7904C44.2448 80.7904 45.4043 80.4617 46.5248 80.1443C47.6536 79.824 48.8214 79.4935 50.0011 79.4935C51.181 79.4935 52.3478 79.824 53.4776 80.1443C54.599 80.4617 55.7584 80.7904 56.9392 80.7904C58.0716 80.7904 59.0928 80.4849 59.9727 79.8834C61.6538 78.7334 62.1515 76.7367 62.1913 74.8846L63.3989 75.3292L64.4312 74.4818C67.9225 71.6134 69.7939 68.1491 69.9924 64.1844C70.1076 61.8843 69.6314 59.6647 68.8812 57.6568L72.9766 53.1567C73.7574 53.2106 74.9828 53.3916 76.3426 53.9578C79.4692 55.2584 81.8334 57.9029 83.378 61.8203C82.776 63.9375 82.0297 65.9343 81.1413 67.789ZM84.7205 42.7711L85.0353 46.0246C85.0398 46.0682 85.3825 49.7711 84.7689 54.833C82.6023 52.0222 80.1368 50.4886 78.1327 49.6551C77.6221 49.4425 77.1255 49.2679 76.6483 49.1241L79.3275 46.1806L79.3227 45.2728C79.3219 45.037 79.2913 42.552 78.5904 39.2093C79.0173 38.3655 81.4977 34.1437 88.1469 34.3536C88.8116 37.2906 89.1429 40.4561 89.1373 43.8285L84.7205 42.7711ZM86.1251 28.2204C86.3424 28.7059 86.5465 29.2015 86.7406 29.7038C82.5977 29.9034 79.7304 31.4462 77.923 32.9007C77.5741 33.181 77.2546 33.4669 76.9612 33.751C75.6227 30.3786 73.5238 26.8799 70.2331 24.1916C70.1346 24.1109 70.0334 24.0329 69.9333 23.9549C70.4336 22.0372 72.0246 18.6665 77.0837 16.9038C77.4421 17.1721 77.8013 17.4542 78.1597 17.7495C81.61 20.5891 84.29 24.1119 86.1251 28.2204ZM31.0275 5.81011C33.4652 5.04712 36.211 4.66183 39.2399 4.66183C44.791 4.66183 49.2792 5.9976 49.321 6.01063L50.0006 6.21587L50.6774 6.01163C50.7219 5.99774 55.2101 4.66197 60.7612 4.66197C63.7901 4.66197 66.5359 5.04726 68.9736 5.81025L58.756 10.3281L66.1471 11.7102C66.1868 11.7177 68.8335 12.2319 72.3191 13.9697C69.3579 15.6805 67.6461 17.8591 66.6696 19.6563C66.3242 20.2922 66.0523 20.9095 65.8378 21.4906C61.4313 19.5328 56.128 19.1189 49.9996 20.2672C43.8711 19.1189 38.5678 19.532 34.1613 21.4906C33.9468 20.9104 33.6749 20.2922 33.3295 19.6563C32.354 17.8611 30.6441 15.6842 27.6874 13.9743C31.161 12.2478 33.8158 11.7177 33.852 11.7102L41.243 10.3281L31.0275 5.81011ZM21.6835 17.8786C22.0947 17.5351 22.5069 17.2112 22.9181 16.9031C25.7883 17.8953 27.8751 19.5032 29.132 21.6976C29.609 22.5294 29.8904 23.3239 30.0565 23.9616C29.9599 24.0378 29.8625 24.1129 29.7669 24.1909C26.4762 26.8792 24.3783 30.3779 23.0388 33.7503C22.7454 33.4663 22.426 33.1812 22.0771 32.9C20.2706 31.4463 17.4041 29.9036 13.2623 29.7039C13.4396 29.2435 13.6242 28.7886 13.821 28.3421C15.6302 24.2446 18.2757 20.7246 21.6835 17.8786Z" fill="#CDCBFF"/>
<path d="M102.438 61V42.4395H105.484V58.4102H113.368V61H102.438ZM119.259 46.9463V61H116.275V46.9463H119.259ZM117.786 41.5635C118.243 41.5635 118.637 41.6862 118.967 41.9316C119.305 42.1771 119.475 42.6003 119.475 43.2012C119.475 43.7936 119.305 44.2168 118.967 44.4707C118.637 44.7161 118.243 44.8389 117.786 44.8389C117.312 44.8389 116.91 44.7161 116.58 44.4707C116.258 44.2168 116.098 43.7936 116.098 43.2012C116.098 42.6003 116.258 42.1771 116.58 41.9316C116.91 41.6862 117.312 41.5635 117.786 41.5635ZM135.979 53.9414C135.979 55.1094 135.826 56.1462 135.521 57.0518C135.217 57.9574 134.772 58.7233 134.188 59.3496C133.604 59.9674 132.902 60.4414 132.081 60.7715C131.26 61.0931 130.333 61.2539 129.301 61.2539C128.336 61.2539 127.451 61.0931 126.647 60.7715C125.843 60.4414 125.145 59.9674 124.553 59.3496C123.969 58.7233 123.516 57.9574 123.194 57.0518C122.873 56.1462 122.712 55.1094 122.712 53.9414C122.712 52.3926 122.979 51.0807 123.512 50.0059C124.053 48.9225 124.824 48.0973 125.822 47.5303C126.821 46.9632 128.01 46.6797 129.39 46.6797C130.685 46.6797 131.827 46.9632 132.817 47.5303C133.808 48.0973 134.582 48.9225 135.141 50.0059C135.699 51.0892 135.979 52.401 135.979 53.9414ZM125.784 53.9414C125.784 54.9655 125.907 55.8415 126.152 56.5693C126.406 57.2972 126.796 57.8558 127.32 58.2451C127.845 58.626 128.522 58.8164 129.352 58.8164C130.181 58.8164 130.858 58.626 131.383 58.2451C131.908 57.8558 132.293 57.2972 132.538 56.5693C132.784 55.8415 132.906 54.9655 132.906 53.9414C132.906 52.9173 132.784 52.0498 132.538 51.3389C132.293 50.6195 131.908 50.0736 131.383 49.7012C130.858 49.3203 130.177 49.1299 129.339 49.1299C128.103 49.1299 127.202 49.5446 126.635 50.374C126.068 51.2035 125.784 52.3926 125.784 53.9414ZM146.731 46.6797C148.314 46.6797 149.546 47.0902 150.426 47.9111C151.314 48.7236 151.759 50.0312 151.759 51.834V61H148.775V52.3926C148.775 51.3008 148.551 50.484 148.103 49.9424C147.654 49.3923 146.96 49.1172 146.021 49.1172C144.658 49.1172 143.71 49.5361 143.177 50.374C142.652 51.2119 142.39 52.4264 142.39 54.0176V61H139.406V46.9463H141.729L142.148 48.8506H142.313C142.618 48.3597 142.995 47.9577 143.443 47.6445C143.9 47.3229 144.408 47.0817 144.967 46.9209C145.534 46.7601 146.122 46.6797 146.731 46.6797ZM164.149 44.7627C163.261 44.7627 162.465 44.9235 161.763 45.2451C161.069 45.5667 160.48 46.0322 159.998 46.6416C159.516 47.2425 159.147 47.9746 158.894 48.8379C158.64 49.6927 158.513 50.6576 158.513 51.7324C158.513 53.1712 158.716 54.4111 159.122 55.4521C159.528 56.4847 160.146 57.2803 160.976 57.8389C161.805 58.389 162.854 58.6641 164.124 58.6641C164.911 58.6641 165.677 58.5879 166.422 58.4355C167.167 58.2832 167.937 58.0758 168.732 57.8135V60.4033C167.979 60.6995 167.217 60.9154 166.447 61.0508C165.677 61.1862 164.788 61.2539 163.781 61.2539C161.885 61.2539 160.311 60.8604 159.059 60.0732C157.814 59.2861 156.883 58.1774 156.266 56.7471C155.656 55.3167 155.352 53.641 155.352 51.7197C155.352 50.3148 155.546 49.0283 155.936 47.8604C156.325 46.6924 156.892 45.6852 157.637 44.8389C158.382 43.984 159.3 43.3281 160.392 42.8711C161.492 42.4056 162.749 42.1729 164.162 42.1729C165.093 42.1729 166.007 42.2786 166.904 42.4902C167.81 42.6934 168.648 42.9854 169.418 43.3662L168.352 45.8799C167.708 45.5752 167.035 45.3128 166.333 45.0928C165.631 44.8727 164.903 44.7627 164.149 44.7627ZM184.855 53.9414C184.855 55.1094 184.703 56.1462 184.398 57.0518C184.094 57.9574 183.649 58.7233 183.065 59.3496C182.481 59.9674 181.779 60.4414 180.958 60.7715C180.137 61.0931 179.21 61.2539 178.178 61.2539C177.213 61.2539 176.328 61.0931 175.524 60.7715C174.72 60.4414 174.022 59.9674 173.43 59.3496C172.846 58.7233 172.393 57.9574 172.071 57.0518C171.75 56.1462 171.589 55.1094 171.589 53.9414C171.589 52.3926 171.855 51.0807 172.389 50.0059C172.93 48.9225 173.701 48.0973 174.699 47.5303C175.698 46.9632 176.887 46.6797 178.267 46.6797C179.562 46.6797 180.704 46.9632 181.694 47.5303C182.685 48.0973 183.459 48.9225 184.018 50.0059C184.576 51.0892 184.855 52.401 184.855 53.9414ZM174.661 53.9414C174.661 54.9655 174.784 55.8415 175.029 56.5693C175.283 57.2972 175.673 57.8558 176.197 58.2451C176.722 58.626 177.399 58.8164 178.229 58.8164C179.058 58.8164 179.735 58.626 180.26 58.2451C180.785 57.8558 181.17 57.2972 181.415 56.5693C181.66 55.8415 181.783 54.9655 181.783 53.9414C181.783 52.9173 181.66 52.0498 181.415 51.3389C181.17 50.6195 180.785 50.0736 180.26 49.7012C179.735 49.3203 179.054 49.1299 178.216 49.1299C176.98 49.1299 176.079 49.5446 175.512 50.374C174.945 51.2035 174.661 52.3926 174.661 53.9414ZM195.405 46.6797C195.642 46.6797 195.9 46.6924 196.18 46.7178C196.459 46.7432 196.7 46.777 196.903 46.8193L196.624 49.6123C196.446 49.5615 196.226 49.5234 195.964 49.498C195.71 49.4727 195.481 49.46 195.278 49.46C194.745 49.46 194.237 49.5488 193.755 49.7266C193.272 49.8958 192.845 50.1582 192.473 50.5137C192.1 50.8607 191.808 51.2965 191.597 51.8213C191.385 52.346 191.279 52.9554 191.279 53.6494V61H188.283V46.9463H190.619L191.025 49.4219H191.165C191.444 48.9225 191.791 48.4655 192.206 48.0508C192.621 47.6361 193.095 47.306 193.628 47.0605C194.17 46.8066 194.762 46.6797 195.405 46.6797ZM206.717 46.6797C208.384 46.6797 209.721 47.2891 210.729 48.5078C211.744 49.7266 212.252 51.5378 212.252 53.9414C212.252 55.5326 212.015 56.874 211.541 57.9658C211.076 59.0492 210.42 59.8701 209.573 60.4287C208.735 60.9788 207.758 61.2539 206.641 61.2539C205.93 61.2539 205.312 61.1608 204.787 60.9746C204.262 60.7884 203.814 60.5472 203.441 60.251C203.069 59.9463 202.756 59.6162 202.502 59.2607H202.324C202.367 59.5993 202.405 59.9759 202.438 60.3906C202.481 60.7969 202.502 61.1693 202.502 61.5078V67.2334H199.506V46.9463H201.943L202.362 48.8887H202.502C202.764 48.4909 203.082 48.1227 203.454 47.7842C203.835 47.4456 204.292 47.179 204.825 46.9844C205.367 46.7812 205.997 46.6797 206.717 46.6797ZM205.917 49.1172C205.096 49.1172 204.436 49.2822 203.937 49.6123C203.446 49.9339 203.086 50.4206 202.857 51.0723C202.637 51.724 202.519 52.5407 202.502 53.5225V53.9414C202.502 54.9824 202.608 55.8669 202.819 56.5947C203.039 57.3141 203.399 57.8643 203.898 58.2451C204.406 58.6175 205.092 58.8037 205.955 58.8037C206.683 58.8037 207.284 58.6048 207.758 58.207C208.24 57.8092 208.6 57.2422 208.837 56.5059C209.074 55.7695 209.192 54.902 209.192 53.9033C209.192 52.3883 208.922 51.2119 208.38 50.374C207.847 49.5361 207.026 49.1172 205.917 49.1172Z" fill="#CDCBFF"/>
</svg>
