<svg width="223" height="100" viewBox="0 0 223 100" fill="none" xmlns="http://www.w3.org/2000/svg">
<path opacity="0.3" d="M12.5 45.8333C12.5 30.1198 12.5 22.2631 17.3815 17.3815C22.2631 12.5 30.1198 12.5 45.8333 12.5H54.1667C69.88 12.5 77.7371 12.5 82.6183 17.3815C87.5 22.2631 87.5 30.1198 87.5 45.8333V54.1667C87.5 69.88 87.5 77.7371 82.6183 82.6183C77.7371 87.5 69.88 87.5 54.1667 87.5H45.8333C30.1198 87.5 22.2631 87.5 17.3815 82.6183C12.5 77.7371 12.5 69.88 12.5 54.1667V45.8333Z" stroke="#CDCBFF" stroke-width="6"/>
<path fill-rule="evenodd" clip-rule="evenodd" d="M79.1567 59.5433L77.7267 58.1129L77.6604 58.0471C75.9917 56.3779 74.6454 55.0321 73.4642 54.0362C72.2475 53.0108 71.0625 52.2304 69.6754 51.8121C67.7133 51.22 65.62 51.22 63.6579 51.8121C62.2708 52.2304 61.0858 53.0108 59.8692 54.0362C58.6879 55.0321 57.3417 56.3779 55.6729 58.0471L55.6067 58.1129C54.3579 59.3621 53.5242 60.1925 52.8467 60.7529C52.1742 61.3091 51.8833 61.3996 51.7654 61.42C51.2621 61.5083 50.7438 61.4087 50.3092 61.1396C50.2075 61.0766 49.9708 60.8846 49.5533 60.1187C49.1321 59.3466 48.6667 58.2658 47.9708 56.6425L47.7483 56.1233L47.6979 56.0058C46.1788 52.4612 44.9713 49.6433 43.7946 47.5525C42.5988 45.4275 41.2718 43.7433 39.3573 42.7833C37.6428 41.9241 35.7243 41.5545 33.8131 41.7158C31.6792 41.8958 29.8215 42.9671 27.9223 44.4954C26.0531 46 23.8852 48.1679 21.1583 50.895L21.0681 50.985L20.8333 51.22V54.1662C20.8333 55.1925 20.8336 56.1733 20.8352 57.1104L24.0143 53.9312C26.8518 51.0941 28.8619 49.0879 30.5348 47.7416C32.1982 46.4025 33.2606 45.9437 34.1635 45.8675C35.3102 45.7708 36.4613 45.9925 37.49 46.5083C38.3 46.9141 39.1161 47.735 40.1633 49.5958C41.2164 51.4671 42.3379 54.0762 43.9183 57.7646L44.1408 58.2837L44.1808 58.3771C44.8263 59.8829 45.3683 61.1475 45.8954 62.1137C46.4367 63.1062 47.0992 64.0529 48.1163 64.6825C49.42 65.4896 50.9754 65.7891 52.4858 65.5241C53.6642 65.3171 54.6308 64.6841 55.5017 63.9637C56.35 63.2625 57.3229 62.2896 58.4813 61.1308L58.5529 61.0591C60.3033 59.3087 61.525 58.09 62.5542 57.2225C63.5638 56.3716 64.2438 55.9875 64.8613 55.8008C66.0388 55.4458 67.2946 55.4458 68.4721 55.8008C69.0896 55.9875 69.7696 56.3716 70.7792 57.2225C71.8083 58.09 73.03 59.3087 74.7804 61.0591L79.0646 65.3437C79.1196 63.6337 79.145 61.7166 79.1567 59.5433Z" fill="#CDCBFF"/>
<path d="M68.75 37.5C72.2018 37.5 75 34.7018 75 31.25C75 27.7982 72.2018 25 68.75 25C65.2982 25 62.5 27.7982 62.5 31.25C62.5 34.7018 65.2982 37.5 68.75 37.5Z" fill="#CDCBFF"/>
<path d="M107.438 61V42.4395H110.484V61H107.438ZM130.962 46.6797C132.536 46.6797 133.721 47.0859 134.517 47.8984C135.321 48.7109 135.723 50.0143 135.723 51.8086V61H132.739V52.3418C132.739 51.2754 132.532 50.4714 132.117 49.9297C131.702 49.388 131.072 49.1172 130.226 49.1172C129.041 49.1172 128.186 49.498 127.661 50.2598C127.145 51.013 126.887 52.109 126.887 53.5479V61H123.903V52.3418C123.903 51.6309 123.81 51.0384 123.624 50.5645C123.446 50.082 123.171 49.7223 122.799 49.4854C122.426 49.2399 121.957 49.1172 121.39 49.1172C120.569 49.1172 119.913 49.3034 119.422 49.6758C118.939 50.0482 118.592 50.5983 118.381 51.3262C118.169 52.0456 118.063 52.93 118.063 53.9795V61H115.08V46.9463H117.403L117.822 48.8379H117.987C118.275 48.347 118.631 47.945 119.054 47.6318C119.485 47.3102 119.964 47.0732 120.488 46.9209C121.013 46.7601 121.559 46.6797 122.126 46.6797C123.175 46.6797 124.06 46.8659 124.779 47.2383C125.499 47.6022 126.036 48.1608 126.392 48.9141H126.62C127.06 48.1523 127.674 47.5895 128.461 47.2256C129.248 46.8617 130.082 46.6797 130.962 46.6797ZM145.396 46.6797C147.174 46.6797 148.515 47.0732 149.421 47.8604C150.335 48.6475 150.792 49.8747 150.792 51.542V61H148.672L148.101 59.0068H147.999C147.601 59.5146 147.191 59.9336 146.768 60.2637C146.344 60.5938 145.854 60.8392 145.295 61C144.745 61.1693 144.072 61.2539 143.276 61.2539C142.438 61.2539 141.689 61.1016 141.029 60.7969C140.369 60.4837 139.849 60.0098 139.468 59.375C139.087 58.7402 138.896 57.9362 138.896 56.9629C138.896 55.5156 139.434 54.4281 140.509 53.7002C141.592 52.9723 143.226 52.5703 145.409 52.4941L147.847 52.4053V51.6689C147.847 50.6956 147.618 50.0016 147.161 49.5869C146.713 49.1722 146.078 48.9648 145.257 48.9648C144.554 48.9648 143.873 49.0664 143.213 49.2695C142.553 49.4727 141.91 49.7223 141.283 50.0186L140.318 47.9111C141.004 47.5472 141.783 47.251 142.654 47.0225C143.535 46.7939 144.449 46.6797 145.396 46.6797ZM147.834 54.2842L146.019 54.3477C144.529 54.3984 143.484 54.6523 142.883 55.1094C142.282 55.5664 141.981 56.1927 141.981 56.9883C141.981 57.6823 142.189 58.1901 142.604 58.5117C143.018 58.8249 143.564 58.9814 144.241 58.9814C145.274 58.9814 146.129 58.6895 146.806 58.1055C147.491 57.513 147.834 56.6455 147.834 55.5029V54.2842ZM158.98 67.2461C157.076 67.2461 155.616 66.9033 154.601 66.2178C153.585 65.5322 153.077 64.5716 153.077 63.3359C153.077 62.4727 153.348 61.7406 153.89 61.1396C154.431 60.5472 155.206 60.1367 156.213 59.9082C155.832 59.7389 155.502 59.4766 155.223 59.1211C154.952 58.7572 154.816 58.3551 154.816 57.915C154.816 57.3903 154.965 56.9417 155.261 56.5693C155.557 56.1969 156.001 55.8372 156.594 55.4902C155.857 55.1771 155.265 54.6693 154.816 53.9668C154.376 53.2559 154.156 52.4222 154.156 51.4658C154.156 50.4502 154.372 49.5869 154.804 48.876C155.235 48.1566 155.866 47.6107 156.695 47.2383C157.525 46.8574 158.528 46.667 159.704 46.667C159.958 46.667 160.233 46.6839 160.529 46.7178C160.834 46.7432 161.113 46.777 161.367 46.8193C161.63 46.8532 161.828 46.8913 161.964 46.9336H166.826V48.5967L164.439 49.041C164.668 49.3626 164.85 49.7308 164.985 50.1455C165.121 50.5518 165.188 50.9961 165.188 51.4785C165.188 52.9342 164.685 54.0811 163.678 54.9189C162.679 55.7484 161.299 56.1631 159.539 56.1631C159.116 56.1462 158.705 56.1123 158.308 56.0615C158.003 56.2477 157.77 56.4551 157.609 56.6836C157.449 56.9036 157.368 57.1533 157.368 57.4326C157.368 57.6611 157.449 57.8473 157.609 57.9912C157.77 58.1266 158.007 58.2282 158.32 58.2959C158.642 58.3636 159.031 58.3975 159.488 58.3975H161.913C163.453 58.3975 164.63 58.7233 165.442 59.375C166.255 60.0267 166.661 60.9831 166.661 62.2441C166.661 63.8438 166.001 65.0752 164.681 65.9385C163.36 66.8102 161.46 67.2461 158.98 67.2461ZM159.095 65.1514C160.136 65.1514 161.012 65.0498 161.723 64.8467C162.434 64.6436 162.971 64.3516 163.335 63.9707C163.699 63.5983 163.881 63.154 163.881 62.6377C163.881 62.1807 163.767 61.8294 163.538 61.584C163.31 61.3385 162.967 61.1693 162.51 61.0762C162.053 60.9831 161.486 60.9365 160.809 60.9365H158.6C158.049 60.9365 157.563 61.0212 157.14 61.1904C156.716 61.3682 156.386 61.6221 156.149 61.9521C155.921 62.2822 155.807 62.68 155.807 63.1455C155.807 63.7887 156.09 64.2839 156.657 64.6309C157.233 64.9779 158.045 65.1514 159.095 65.1514ZM159.679 54.208C160.55 54.208 161.198 53.971 161.621 53.4971C162.044 53.0146 162.256 52.3376 162.256 51.4658C162.256 50.5179 162.036 49.807 161.596 49.333C161.164 48.859 160.521 48.6221 159.666 48.6221C158.828 48.6221 158.189 48.8633 157.749 49.3457C157.317 49.8281 157.102 50.5433 157.102 51.4912C157.102 52.346 157.317 53.0146 157.749 53.4971C158.189 53.971 158.832 54.208 159.679 54.208ZM172.374 46.9463V61H169.391V46.9463H172.374ZM170.901 41.5635C171.358 41.5635 171.752 41.6862 172.082 41.9316C172.421 42.1771 172.59 42.6003 172.59 43.2012C172.59 43.7936 172.421 44.2168 172.082 44.4707C171.752 44.7161 171.358 44.8389 170.901 44.8389C170.427 44.8389 170.025 44.7161 169.695 44.4707C169.374 44.2168 169.213 43.7936 169.213 43.2012C169.213 42.6003 169.374 42.1771 169.695 41.9316C170.025 41.6862 170.427 41.5635 170.901 41.5635ZM183.978 46.6797C185.56 46.6797 186.792 47.0902 187.672 47.9111C188.561 48.7236 189.005 50.0312 189.005 51.834V61H186.021V52.3926C186.021 51.3008 185.797 50.484 185.349 49.9424C184.9 49.3923 184.206 49.1172 183.267 49.1172C181.904 49.1172 180.956 49.5361 180.423 50.374C179.898 51.2119 179.636 52.4264 179.636 54.0176V61H176.652V46.9463H178.976L179.395 48.8506H179.56C179.864 48.3597 180.241 47.9577 180.689 47.6445C181.146 47.3229 181.654 47.0817 182.213 46.9209C182.78 46.7601 183.368 46.6797 183.978 46.6797ZM198.78 46.6797C200.033 46.6797 201.108 46.9378 202.005 47.4541C202.902 47.9704 203.592 48.7025 204.074 49.6504C204.557 50.5983 204.798 51.7324 204.798 53.0527V54.6523H195.416C195.45 56.015 195.814 57.0645 196.508 57.8008C197.21 58.5371 198.192 58.9053 199.453 58.9053C200.35 58.9053 201.154 58.8206 201.865 58.6514C202.585 58.4736 203.325 58.2155 204.087 57.877V60.3018C203.384 60.6318 202.669 60.873 201.941 61.0254C201.214 61.1777 200.342 61.2539 199.326 61.2539C197.947 61.2539 196.732 60.9873 195.683 60.4541C194.642 59.9124 193.825 59.1084 193.232 58.042C192.648 56.9756 192.356 55.651 192.356 54.0684C192.356 52.4941 192.623 51.1569 193.156 50.0566C193.689 48.9564 194.438 48.1185 195.403 47.543C196.368 46.9674 197.494 46.6797 198.78 46.6797ZM198.78 48.9268C197.841 48.9268 197.079 49.2314 196.495 49.8408C195.92 50.4502 195.581 51.3431 195.479 52.5195H201.878C201.869 51.8171 201.751 51.195 201.522 50.6533C201.302 50.1117 200.964 49.6885 200.507 49.3838C200.058 49.0791 199.483 48.9268 198.78 48.9268ZM213.685 42.4395C215.284 42.4395 216.604 42.6341 217.646 43.0234C218.695 43.4128 219.474 44.0052 219.981 44.8008C220.498 45.5964 220.756 46.6077 220.756 47.835C220.756 48.749 220.587 49.5277 220.248 50.1709C219.91 50.8141 219.465 51.3473 218.915 51.7705C218.365 52.1937 217.777 52.5322 217.15 52.7861L222.419 61H218.979L214.497 53.5605H211.514V61H208.467V42.4395H213.685ZM213.481 44.9785H211.514V51.0469H213.621C215.035 51.0469 216.059 50.7845 216.693 50.2598C217.337 49.735 217.658 48.9606 217.658 47.9365C217.658 46.8617 217.315 46.0999 216.63 45.6514C215.953 45.2028 214.903 44.9785 213.481 44.9785Z" fill="#CDCBFF"/>
</svg>
