<svg width="217" height="100" viewBox="0 0 217 100" fill="none" xmlns="http://www.w3.org/2000/svg">
<path d="M67.9329 57.4069C69.1042 58.904 70.5727 59.4615 72.6158 59.4615H75.4435C78.075 59.4615 80.2081 57.3671 80.2081 54.7836V54.7633C80.2081 52.1798 78.075 50.0854 75.4435 50.0854H72.3244C69.69 50.0854 67.5548 47.9888 67.5548 45.4027C67.5548 42.8106 69.6948 40.7096 72.335 40.7096H75.1471C77.1902 40.7096 78.6588 41.2671 79.83 42.7642" stroke="#CDCBFF" stroke-width="4" stroke-linecap="round" stroke-linejoin="round"/>
<path d="M58.9844 50.0859C61.6215 50.0859 63.7594 52.1848 63.7594 54.7738C63.7594 57.3628 61.6217 59.4617 58.9844 59.4617H51.1058V40.7098H58.9844C61.6215 40.7098 63.7594 42.8088 63.7594 45.3978C63.7594 47.9867 61.6217 50.0859 58.9844 50.0859Z" stroke="#CDCBFF" stroke-width="4" stroke-linecap="round" stroke-linejoin="round"/>
<path d="M58.9844 50.0859H51.1056" stroke="#CDCBFF" stroke-width="4" stroke-linecap="round" stroke-linejoin="round"/>
<path d="M46.8985 53.1715V53.2481C46.8985 56.6761 44.0629 59.4552 40.5652 59.4552C37.0675 59.4552 34.2319 56.6763 34.2319 53.2481V46.9242C34.2319 43.4963 37.0675 40.7171 40.5652 40.7171C44.0631 40.7171 46.8985 43.4961 46.8985 46.9242V47.0008" stroke="#CDCBFF" stroke-width="4" stroke-linecap="round" stroke-linejoin="round"/>
<path d="M19.7917 40.7086H32.4452" stroke="#CDCBFF" stroke-width="4" stroke-linecap="round" stroke-linejoin="round"/>
<path d="M26.1183 59.4602V40.7086" stroke="#CDCBFF" stroke-width="4" stroke-linecap="round" stroke-linejoin="round"/>
<path d="M24.4763 20.1044L19.7917 24.8265L24.649 29.301" stroke="#CDCBFF" stroke-width="4" stroke-linecap="round" stroke-linejoin="round"/>
<path d="M75.5238 70.6987L80.2083 75.4208L75.351 79.8954" stroke="#CDCBFF" stroke-width="4" stroke-linecap="round" stroke-linejoin="round"/>
<path d="M84.375 11.4583H15.625C13.3238 11.4583 11.4583 13.3237 11.4583 15.625V84.375C11.4583 86.6762 13.3238 88.5416 15.625 88.5416H84.375C86.6762 88.5416 88.5417 86.6762 88.5417 84.375V15.625C88.5417 13.3237 86.6762 11.4583 84.375 11.4583Z" stroke="#CDCBFF" stroke-width="2" stroke-linecap="round" stroke-linejoin="round"/>
<path d="M109.874 43H106.814V27.0293H101.381V24.4395H115.295V27.0293H109.874V43ZM126.048 26.7627C125.159 26.7627 124.364 26.9235 123.661 27.2451C122.967 27.5667 122.379 28.0322 121.896 28.6416C121.414 29.2425 121.046 29.9746 120.792 30.8379C120.538 31.6927 120.411 32.6576 120.411 33.7324C120.411 35.1712 120.614 36.4111 121.021 37.4521C121.427 38.4847 122.045 39.2803 122.874 39.8389C123.703 40.389 124.753 40.6641 126.022 40.6641C126.81 40.6641 127.576 40.5879 128.32 40.4355C129.065 40.2832 129.835 40.0758 130.631 39.8135V42.4033C129.878 42.6995 129.116 42.9154 128.346 43.0508C127.576 43.1862 126.687 43.2539 125.68 43.2539C123.784 43.2539 122.21 42.8604 120.957 42.0732C119.713 41.2861 118.782 40.1774 118.164 38.7471C117.555 37.3167 117.25 35.641 117.25 33.7197C117.25 32.3148 117.445 31.0283 117.834 29.8604C118.223 28.6924 118.79 27.6852 119.535 26.8389C120.28 25.984 121.198 25.3281 122.29 24.8711C123.39 24.4056 124.647 24.1729 126.061 24.1729C126.992 24.1729 127.906 24.2786 128.803 24.4902C129.708 24.6934 130.546 24.9854 131.316 25.3662L130.25 27.8799C129.607 27.5752 128.934 27.3128 128.231 27.0928C127.529 26.8727 126.801 26.7627 126.048 26.7627ZM134.617 24.4395H140.14C142.535 24.4395 144.342 24.7865 145.561 25.4805C146.779 26.1745 147.389 27.3721 147.389 29.0732C147.389 29.7842 147.262 30.4274 147.008 31.0029C146.762 31.57 146.403 32.0397 145.929 32.4121C145.455 32.776 144.871 33.0215 144.177 33.1484V33.2754C144.896 33.4023 145.535 33.6266 146.094 33.9482C146.661 34.2699 147.105 34.7311 147.427 35.332C147.757 35.9329 147.922 36.7116 147.922 37.668C147.922 38.8021 147.651 39.7669 147.109 40.5625C146.576 41.3581 145.81 41.9632 144.812 42.3779C143.821 42.7926 142.645 43 141.282 43H134.617V24.4395ZM137.664 32.0947H140.584C141.964 32.0947 142.92 31.8704 143.453 31.4219C143.986 30.9733 144.253 30.3174 144.253 29.4541C144.253 28.5739 143.936 27.9391 143.301 27.5498C142.674 27.1605 141.676 26.9658 140.305 26.9658H137.664V32.0947ZM137.664 34.5576V40.4482H140.876C142.298 40.4482 143.297 40.1732 143.872 39.623C144.448 39.0729 144.735 38.3281 144.735 37.3887C144.735 36.8132 144.604 36.3138 144.342 35.8906C144.088 35.4674 143.669 35.1416 143.085 34.9131C142.501 34.6761 141.714 34.5576 140.724 34.5576H137.664ZM162.471 37.9473C162.471 39.0475 162.2 39.9954 161.658 40.791C161.125 41.5866 160.355 42.196 159.348 42.6191C158.349 43.0423 157.156 43.2539 155.768 43.2539C155.09 43.2539 154.443 43.2158 153.825 43.1396C153.207 43.0635 152.623 42.9535 152.073 42.8096C151.532 42.6572 151.036 42.4753 150.588 42.2637V39.3945C151.341 39.7246 152.183 40.0251 153.114 40.2959C154.045 40.5583 154.993 40.6895 155.958 40.6895C156.745 40.6895 157.397 40.5879 157.913 40.3848C158.438 40.1732 158.827 39.877 159.081 39.4961C159.335 39.1068 159.462 38.654 159.462 38.1377C159.462 37.5876 159.314 37.1221 159.018 36.7412C158.721 36.3604 158.273 36.0133 157.672 35.7002C157.079 35.3786 156.335 35.0358 155.438 34.6719C154.828 34.4264 154.244 34.1471 153.686 33.834C153.135 33.5208 152.645 33.1527 152.213 32.7295C151.781 32.3063 151.438 31.807 151.185 31.2314C150.939 30.6475 150.816 29.9619 150.816 29.1748C150.816 28.1253 151.066 27.2282 151.565 26.4834C152.073 25.7386 152.784 25.1673 153.698 24.7695C154.621 24.3717 155.696 24.1729 156.923 24.1729C157.896 24.1729 158.81 24.2744 159.665 24.4775C160.528 24.6807 161.375 24.9684 162.204 25.3408L161.239 27.791C160.478 27.4779 159.737 27.2282 159.018 27.042C158.307 26.8558 157.579 26.7627 156.834 26.7627C156.191 26.7627 155.645 26.86 155.196 27.0547C154.748 27.2493 154.405 27.5244 154.168 27.8799C153.939 28.2269 153.825 28.6416 153.825 29.124C153.825 29.6657 153.956 30.1227 154.219 30.4951C154.49 30.859 154.904 31.1934 155.463 31.498C156.03 31.8027 156.758 32.1413 157.646 32.5137C158.671 32.9368 159.538 33.3812 160.249 33.8467C160.968 34.3122 161.519 34.8708 161.899 35.5225C162.28 36.1657 162.471 36.974 162.471 37.9473ZM108.795 78.2539C107.466 78.2539 106.315 77.9958 105.342 77.4795C104.368 76.9632 103.619 76.1719 103.095 75.1055C102.57 74.0391 102.308 72.6849 102.308 71.043C102.308 69.3333 102.595 67.9368 103.171 66.8535C103.746 65.7702 104.542 64.9704 105.558 64.4541C106.582 63.9378 107.754 63.6797 109.074 63.6797C109.912 63.6797 110.67 63.7643 111.347 63.9336C112.032 64.0944 112.612 64.2933 113.086 64.5303L112.197 66.917C111.681 66.7054 111.152 66.5277 110.61 66.3838C110.069 66.2399 109.548 66.168 109.049 66.168C108.228 66.168 107.542 66.3499 106.992 66.7139C106.451 67.0778 106.044 67.6195 105.773 68.3389C105.511 69.0583 105.38 69.9512 105.38 71.0176C105.38 72.0501 105.515 72.9219 105.786 73.6328C106.057 74.3353 106.459 74.8685 106.992 75.2324C107.525 75.5879 108.181 75.7656 108.96 75.7656C109.73 75.7656 110.42 75.6725 111.029 75.4863C111.639 75.3001 112.214 75.0589 112.756 74.7627V77.3525C112.223 77.6572 111.651 77.8815 111.042 78.0254C110.433 78.1777 109.684 78.2539 108.795 78.2539ZM128.498 70.9414C128.498 72.1094 128.346 73.1462 128.041 74.0518C127.736 74.9574 127.292 75.7233 126.708 76.3496C126.124 76.9674 125.422 77.4414 124.601 77.7715C123.78 78.0931 122.853 78.2539 121.82 78.2539C120.855 78.2539 119.971 78.0931 119.167 77.7715C118.363 77.4414 117.665 76.9674 117.072 76.3496C116.488 75.7233 116.035 74.9574 115.714 74.0518C115.392 73.1462 115.231 72.1094 115.231 70.9414C115.231 69.3926 115.498 68.0807 116.031 67.0059C116.573 65.9225 117.343 65.0973 118.342 64.5303C119.34 63.9632 120.53 63.6797 121.909 63.6797C123.204 63.6797 124.347 63.9632 125.337 64.5303C126.327 65.0973 127.102 65.9225 127.66 67.0059C128.219 68.0892 128.498 69.401 128.498 70.9414ZM118.304 70.9414C118.304 71.9655 118.426 72.8415 118.672 73.5693C118.926 74.2972 119.315 74.8558 119.84 75.2451C120.365 75.626 121.042 75.8164 121.871 75.8164C122.701 75.8164 123.378 75.626 123.902 75.2451C124.427 74.8558 124.812 74.2972 125.058 73.5693C125.303 72.8415 125.426 71.9655 125.426 70.9414C125.426 69.9173 125.303 69.0498 125.058 68.3389C124.812 67.6195 124.427 67.0736 123.902 66.7012C123.378 66.3203 122.696 66.1299 121.858 66.1299C120.623 66.1299 119.721 66.5446 119.154 67.374C118.587 68.2035 118.304 69.3926 118.304 70.9414ZM147.808 63.6797C149.382 63.6797 150.567 64.0859 151.362 64.8984C152.166 65.7109 152.568 67.0143 152.568 68.8086V78H149.585V69.3418C149.585 68.2754 149.378 67.4714 148.963 66.9297C148.548 66.388 147.918 66.1172 147.071 66.1172C145.886 66.1172 145.032 66.498 144.507 67.2598C143.991 68.013 143.732 69.109 143.732 70.5479V78H140.749V69.3418C140.749 68.6309 140.656 68.0384 140.47 67.5645C140.292 67.082 140.017 66.7223 139.645 66.4854C139.272 66.2399 138.802 66.1172 138.235 66.1172C137.414 66.1172 136.758 66.3034 136.268 66.6758C135.785 67.0482 135.438 67.5983 135.227 68.3262C135.015 69.0456 134.909 69.93 134.909 70.9795V78H131.926V63.9463H134.249L134.668 65.8379H134.833C135.121 65.347 135.476 64.945 135.899 64.6318C136.331 64.3102 136.809 64.0732 137.334 63.9209C137.859 63.7601 138.405 63.6797 138.972 63.6797C140.021 63.6797 140.906 63.8659 141.625 64.2383C142.344 64.6022 142.882 65.1608 143.237 65.9141H143.466C143.906 65.1523 144.52 64.5895 145.307 64.2256C146.094 63.8617 146.927 63.6797 147.808 63.6797ZM163.943 63.6797C165.611 63.6797 166.948 64.2891 167.955 65.5078C168.971 66.7266 169.479 68.5378 169.479 70.9414C169.479 72.5326 169.242 73.874 168.768 74.9658C168.302 76.0492 167.646 76.8701 166.8 77.4287C165.962 77.9788 164.984 78.2539 163.867 78.2539C163.156 78.2539 162.538 78.1608 162.014 77.9746C161.489 77.7884 161.04 77.5472 160.668 77.251C160.296 76.9463 159.982 76.6162 159.729 76.2607H159.551C159.593 76.5993 159.631 76.9759 159.665 77.3906C159.707 77.7969 159.729 78.1693 159.729 78.5078V84.2334H156.732V63.9463H159.17L159.589 65.8887H159.729C159.991 65.4909 160.308 65.1227 160.681 64.7842C161.062 64.4456 161.519 64.179 162.052 63.9844C162.593 63.7812 163.224 63.6797 163.943 63.6797ZM163.144 66.1172C162.323 66.1172 161.662 66.2822 161.163 66.6123C160.672 66.9339 160.312 67.4206 160.084 68.0723C159.864 68.724 159.745 69.5407 159.729 70.5225V70.9414C159.729 71.9824 159.834 72.8669 160.046 73.5947C160.266 74.3141 160.626 74.8643 161.125 75.2451C161.633 75.6175 162.318 75.8037 163.182 75.8037C163.91 75.8037 164.51 75.6048 164.984 75.207C165.467 74.8092 165.826 74.2422 166.063 73.5059C166.3 72.7695 166.419 71.902 166.419 70.9033C166.419 69.3883 166.148 68.2119 165.606 67.374C165.073 66.5361 164.252 66.1172 163.144 66.1172ZM178.441 63.6797C180.219 63.6797 181.56 64.0732 182.466 64.8604C183.38 65.6475 183.837 66.8747 183.837 68.542V78H181.717L181.146 76.0068H181.044C180.646 76.5146 180.236 76.9336 179.812 77.2637C179.389 77.5938 178.898 77.8392 178.34 78C177.79 78.1693 177.117 78.2539 176.321 78.2539C175.483 78.2539 174.734 78.1016 174.074 77.7969C173.414 77.4837 172.894 77.0098 172.513 76.375C172.132 75.7402 171.941 74.9362 171.941 73.9629C171.941 72.5156 172.479 71.4281 173.554 70.7002C174.637 69.9723 176.271 69.5703 178.454 69.4941L180.892 69.4053V68.6689C180.892 67.6956 180.663 67.0016 180.206 66.5869C179.757 66.1722 179.123 65.9648 178.302 65.9648C177.599 65.9648 176.918 66.0664 176.258 66.2695C175.598 66.4727 174.954 66.7223 174.328 67.0186L173.363 64.9111C174.049 64.5472 174.827 64.251 175.699 64.0225C176.579 63.7939 177.493 63.6797 178.441 63.6797ZM180.879 71.2842L179.063 71.3477C177.574 71.3984 176.529 71.6523 175.928 72.1094C175.327 72.5664 175.026 73.1927 175.026 73.9883C175.026 74.6823 175.234 75.1901 175.648 75.5117C176.063 75.8249 176.609 75.9814 177.286 75.9814C178.319 75.9814 179.174 75.6895 179.851 75.1055C180.536 74.513 180.879 73.6455 180.879 72.5029V71.2842ZM195.339 63.6797C196.922 63.6797 198.153 64.0902 199.033 64.9111C199.922 65.7236 200.366 67.0312 200.366 68.834V78H197.383V69.3926C197.383 68.3008 197.159 67.484 196.71 66.9424C196.261 66.3923 195.567 66.1172 194.628 66.1172C193.265 66.1172 192.317 66.5361 191.784 67.374C191.259 68.2119 190.997 69.4264 190.997 71.0176V78H188.014V63.9463H190.337L190.756 65.8506H190.921C191.226 65.3597 191.602 64.9577 192.051 64.6445C192.508 64.3229 193.016 64.0817 193.574 63.9209C194.141 63.7601 194.729 63.6797 195.339 63.6797ZM202.423 63.9463H205.673L208.555 71.9697C208.682 72.3337 208.796 72.6934 208.897 73.0488C209.007 73.3958 209.101 73.7386 209.177 74.0771C209.261 74.4157 209.329 74.7542 209.38 75.0928H209.456C209.541 74.6527 209.659 74.1618 209.812 73.6201C209.972 73.07 210.15 72.5199 210.345 71.9697L213.112 63.9463H216.324L210.294 79.9297C209.947 80.8438 209.52 81.6224 209.012 82.2656C208.512 82.9173 207.92 83.4082 207.234 83.7383C206.549 84.0768 205.766 84.2461 204.886 84.2461C204.463 84.2461 204.094 84.2207 203.781 84.1699C203.468 84.1276 203.201 84.0811 202.981 84.0303V81.6436C203.159 81.6859 203.383 81.724 203.654 81.7578C203.925 81.7917 204.204 81.8086 204.492 81.8086C205.025 81.8086 205.487 81.7028 205.876 81.4912C206.265 81.2796 206.595 80.9792 206.866 80.5898C207.137 80.209 207.361 79.7731 207.539 79.2822L208.034 77.9619L202.423 63.9463Z" fill="#CDCBFF"/>
</svg>
