<svg width="231" height="100" viewBox="0 0 231 100" fill="none" xmlns="http://www.w3.org/2000/svg">
<path d="M54.1667 79.1666L66.6667 91.6666L87.5 70.8333" stroke="#CDCBFF" stroke-width="4" stroke-linecap="round" stroke-linejoin="round"/>
<path d="M37.5 91.6666H29.1667C24.5643 91.6666 20.8333 87.9358 20.8333 83.3333V46.5904C20.8333 46.0966 20.6872 45.6141 20.4135 45.2033L12.9199 33.9631C12.6461 33.5524 12.5 33.0699 12.5 32.5764V10.8333C12.5 9.4526 13.6193 8.33331 15 8.33331H22.5C23.8807 8.33331 25 9.4526 25 10.8333V18.3333C25 19.714 26.1193 20.8333 27.5 20.8333H39.1667C40.5474 20.8333 41.6667 19.714 41.6667 18.3333V10.8333C41.6667 9.4526 42.7858 8.33331 44.1667 8.33331H55.8333C57.2142 8.33331 58.3333 9.4526 58.3333 10.8333V18.3333C58.3333 19.714 59.4525 20.8333 60.8333 20.8333H72.5C73.8808 20.8333 75 19.714 75 18.3333V10.8333C75 9.4526 76.1192 8.33331 77.5 8.33331H85C86.3808 8.33331 87.5 9.4526 87.5 10.8333V32.5764C87.5 33.0699 87.3537 33.5524 87.08 33.9631L79.5867 45.2033C79.3129 45.6141 79.1667 46.0966 79.1667 46.5904V56.25" stroke="#CDCBFF" stroke-width="4" stroke-linecap="round" stroke-linejoin="round"/>
<path d="M102.438 42.4395H107.96C110.355 42.4395 112.162 42.7865 113.381 43.4805C114.6 44.1745 115.209 45.3721 115.209 47.0732C115.209 47.7842 115.082 48.4274 114.828 49.0029C114.583 49.57 114.223 50.0397 113.749 50.4121C113.275 50.776 112.691 51.0215 111.997 51.1484V51.2754C112.716 51.4023 113.355 51.6266 113.914 51.9482C114.481 52.2699 114.925 52.7311 115.247 53.332C115.577 53.9329 115.742 54.7116 115.742 55.668C115.742 56.8021 115.471 57.7669 114.93 58.5625C114.396 59.3581 113.631 59.9632 112.632 60.3779C111.642 60.7926 110.465 61 109.103 61H102.438V42.4395ZM105.484 50.0947H108.404C109.784 50.0947 110.74 49.8704 111.273 49.4219C111.807 48.9733 112.073 48.3174 112.073 47.4541C112.073 46.5739 111.756 45.9391 111.121 45.5498C110.495 45.1605 109.496 44.9658 108.125 44.9658H105.484V50.0947ZM105.484 52.5576V58.4482H108.696C110.118 58.4482 111.117 58.1732 111.692 57.623C112.268 57.0729 112.556 56.3281 112.556 55.3887C112.556 54.8132 112.424 54.3138 112.162 53.8906C111.908 53.4674 111.489 53.1416 110.905 52.9131C110.321 52.6761 109.534 52.5576 108.544 52.5576H105.484ZM124.87 46.6797C126.123 46.6797 127.198 46.9378 128.095 47.4541C128.992 47.9704 129.682 48.7025 130.164 49.6504C130.646 50.5983 130.888 51.7324 130.888 53.0527V54.6523H121.506C121.54 56.015 121.904 57.0645 122.598 57.8008C123.3 58.5371 124.282 58.9053 125.543 58.9053C126.44 58.9053 127.244 58.8206 127.955 58.6514C128.674 58.4736 129.415 58.2155 130.177 57.877V60.3018C129.474 60.6318 128.759 60.873 128.031 61.0254C127.303 61.1777 126.432 61.2539 125.416 61.2539C124.036 61.2539 122.822 60.9873 121.772 60.4541C120.731 59.9124 119.915 59.1084 119.322 58.042C118.738 56.9756 118.446 55.651 118.446 54.0684C118.446 52.4941 118.713 51.1569 119.246 50.0566C119.779 48.9564 120.528 48.1185 121.493 47.543C122.458 46.9674 123.584 46.6797 124.87 46.6797ZM124.87 48.9268C123.931 48.9268 123.169 49.2314 122.585 49.8408C122.009 50.4502 121.671 51.3431 121.569 52.5195H127.968C127.959 51.8171 127.841 51.195 127.612 50.6533C127.392 50.1117 127.054 49.6885 126.597 49.3838C126.148 49.0791 125.573 48.9268 124.87 48.9268ZM137.248 61H134.252V41.2461H137.248V61ZM150.959 56.9883C150.959 57.9108 150.735 58.6895 150.286 59.3242C149.838 59.959 149.182 60.4414 148.318 60.7715C147.464 61.0931 146.414 61.2539 145.17 61.2539C144.188 61.2539 143.342 61.182 142.631 61.0381C141.928 60.9027 141.264 60.6911 140.638 60.4033V57.8262C141.306 58.1393 142.055 58.4102 142.885 58.6387C143.723 58.8672 144.514 58.9814 145.259 58.9814C146.241 58.9814 146.947 58.8291 147.379 58.5244C147.811 58.2113 148.026 57.7965 148.026 57.2803C148.026 56.9756 147.938 56.7048 147.76 56.4678C147.59 56.2223 147.269 55.9727 146.795 55.7188C146.329 55.4564 145.644 55.1432 144.738 54.7793C143.85 54.4238 143.101 54.0684 142.491 53.7129C141.882 53.3574 141.421 52.93 141.107 52.4307C140.794 51.9229 140.638 51.2754 140.638 50.4883C140.638 49.2441 141.129 48.3005 142.11 47.6572C143.101 47.0055 144.408 46.6797 146.033 46.6797C146.896 46.6797 147.709 46.7686 148.471 46.9463C149.241 47.1156 149.994 47.3652 150.73 47.6953L149.791 49.9424C149.156 49.6631 148.517 49.4346 147.874 49.2568C147.239 49.0706 146.592 48.9775 145.932 48.9775C145.161 48.9775 144.573 49.096 144.167 49.333C143.769 49.57 143.57 49.9085 143.57 50.3486C143.57 50.6787 143.668 50.958 143.862 51.1865C144.057 51.415 144.391 51.6436 144.865 51.8721C145.348 52.1006 146.016 52.3841 146.871 52.7227C147.709 53.0443 148.433 53.3828 149.042 53.7383C149.66 54.0853 150.134 54.5127 150.464 55.0205C150.794 55.5283 150.959 56.1842 150.959 56.9883ZM160.925 61H157.865V45.0293H152.432V42.4395H166.346V45.0293H160.925V61ZM181.326 53.9414C181.326 55.1094 181.174 56.1462 180.869 57.0518C180.564 57.9574 180.12 58.7233 179.536 59.3496C178.952 59.9674 178.25 60.4414 177.429 60.7715C176.608 61.0931 175.681 61.2539 174.648 61.2539C173.684 61.2539 172.799 61.0931 171.995 60.7715C171.191 60.4414 170.493 59.9674 169.9 59.3496C169.316 58.7233 168.864 57.9574 168.542 57.0518C168.22 56.1462 168.06 55.1094 168.06 53.9414C168.06 52.3926 168.326 51.0807 168.859 50.0059C169.401 48.9225 170.171 48.0973 171.17 47.5303C172.169 46.9632 173.358 46.6797 174.737 46.6797C176.032 46.6797 177.175 46.9632 178.165 47.5303C179.155 48.0973 179.93 48.9225 180.488 50.0059C181.047 51.0892 181.326 52.401 181.326 53.9414ZM171.132 53.9414C171.132 54.9655 171.255 55.8415 171.5 56.5693C171.754 57.2972 172.143 57.8558 172.668 58.2451C173.193 58.626 173.87 58.8164 174.699 58.8164C175.529 58.8164 176.206 58.626 176.73 58.2451C177.255 57.8558 177.64 57.2972 177.886 56.5693C178.131 55.8415 178.254 54.9655 178.254 53.9414C178.254 52.9173 178.131 52.0498 177.886 51.3389C177.64 50.6195 177.255 50.0736 176.73 49.7012C176.206 49.3203 175.524 49.1299 174.687 49.1299C173.451 49.1299 172.549 49.5446 171.982 50.374C171.415 51.2035 171.132 52.3926 171.132 53.9414ZM196.243 60.9873L194.466 54.4492C194.381 54.1276 194.28 53.7383 194.161 53.2812C194.043 52.8242 193.924 52.3545 193.806 51.8721C193.687 51.3812 193.577 50.9284 193.476 50.5137C193.382 50.099 193.311 49.7773 193.26 49.5488H193.158C193.116 49.7773 193.048 50.099 192.955 50.5137C192.862 50.9284 192.756 51.3812 192.638 51.8721C192.519 52.363 192.401 52.8411 192.282 53.3066C192.172 53.7721 192.071 54.1699 191.978 54.5L190.111 60.9873H186.836L182.9 46.9336H185.922L187.75 53.916C187.868 54.39 187.983 54.902 188.093 55.4521C188.211 56.0023 188.313 56.527 188.397 57.0264C188.482 57.5257 188.546 57.9362 188.588 58.2578H188.689C188.723 58.0293 188.77 57.7415 188.829 57.3945C188.888 57.0391 188.956 56.6709 189.032 56.29C189.108 55.9007 189.185 55.5368 189.261 55.1982C189.337 54.8512 189.409 54.5719 189.477 54.3604L191.635 46.9336H194.897L196.967 54.3604C197.06 54.682 197.161 55.0882 197.271 55.5791C197.382 56.0615 197.479 56.5482 197.563 57.0391C197.657 57.5215 197.716 57.9235 197.741 58.2451H197.843C197.877 57.9574 197.936 57.568 198.021 57.0771C198.114 56.5778 198.219 56.0488 198.338 55.4902C198.456 54.9232 198.579 54.3984 198.706 53.916L200.572 46.9336H203.543L199.582 60.9873H196.243ZM211.554 46.6797C212.806 46.6797 213.881 46.9378 214.778 47.4541C215.675 47.9704 216.365 48.7025 216.848 49.6504C217.33 50.5983 217.571 51.7324 217.571 53.0527V54.6523H208.189C208.223 56.015 208.587 57.0645 209.281 57.8008C209.984 58.5371 210.965 58.9053 212.227 58.9053C213.124 58.9053 213.928 58.8206 214.639 58.6514C215.358 58.4736 216.099 58.2155 216.86 57.877V60.3018C216.158 60.6318 215.443 60.873 214.715 61.0254C213.987 61.1777 213.115 61.2539 212.1 61.2539C210.72 61.2539 209.506 60.9873 208.456 60.4541C207.415 59.9124 206.598 59.1084 206.006 58.042C205.422 56.9756 205.13 55.651 205.13 54.0684C205.13 52.4941 205.396 51.1569 205.93 50.0566C206.463 48.9564 207.212 48.1185 208.177 47.543C209.142 46.9674 210.267 46.6797 211.554 46.6797ZM211.554 48.9268C210.614 48.9268 209.853 49.2314 209.269 49.8408C208.693 50.4502 208.354 51.3431 208.253 52.5195H214.651C214.643 51.8171 214.524 51.195 214.296 50.6533C214.076 50.1117 213.737 49.6885 213.28 49.3838C212.832 49.0791 212.256 48.9268 211.554 48.9268ZM228.058 46.6797C228.295 46.6797 228.553 46.6924 228.832 46.7178C229.111 46.7432 229.353 46.777 229.556 46.8193L229.276 49.6123C229.099 49.5615 228.879 49.5234 228.616 49.498C228.362 49.4727 228.134 49.46 227.931 49.46C227.397 49.46 226.89 49.5488 226.407 49.7266C225.925 49.8958 225.497 50.1582 225.125 50.5137C224.753 50.8607 224.461 51.2965 224.249 51.8213C224.037 52.346 223.932 52.9554 223.932 53.6494V61H220.936V46.9463H223.271L223.678 49.4219H223.817C224.097 48.9225 224.444 48.4655 224.858 48.0508C225.273 47.6361 225.747 47.306 226.28 47.0605C226.822 46.8066 227.414 46.6797 228.058 46.6797Z" fill="#CDCBFF"/>
</svg>
