<svg width="34" height="34" viewBox="0 0 34 34" fill="none" xmlns="http://www.w3.org/2000/svg">
<path d="M0.749997 33.875C0.650618 33.8753 0.552611 33.8518 0.464106 33.8066C0.375602 33.7614 0.299152 33.6958 0.241101 33.6151C0.183049 33.5344 0.145069 33.4411 0.130312 33.3428C0.115555 33.2445 0.124446 33.1442 0.156248 33.05L2.625 25.7875C0.682743 22.5564 -0.126013 18.7696 0.32682 15.027C0.779652 11.2843 2.46819 7.79969 5.125 5.12501C8.27929 1.98471 12.549 0.22168 17 0.22168C21.451 0.22168 25.7207 1.98471 28.875 5.12501C31.6555 7.94554 33.3528 11.656 33.6683 15.6041C33.9839 19.5521 32.8976 23.4851 30.6004 26.7115C28.3032 29.9379 24.9421 32.2512 21.1081 33.2447C17.2741 34.2383 13.2125 33.8484 9.6375 32.1438L0.874997 33.875H0.749997ZM9.71875 30.8438C9.81659 30.8443 9.91292 30.8679 10 30.9125C13.3067 32.5619 17.0917 32.9828 20.68 32.1004C24.2683 31.2179 27.4263 29.0894 29.5908 26.0945C31.7554 23.0996 32.7855 19.4332 32.4976 15.7492C32.2096 12.0653 30.6223 8.60345 28.0187 5.98126C26.5719 4.53406 24.854 3.38607 22.9634 2.60283C21.0728 1.8196 19.0464 1.41647 17 1.41647C14.9536 1.41647 12.9272 1.8196 11.0366 2.60283C9.14595 3.38607 7.42814 4.53406 5.98125 5.98126C3.4919 8.49668 1.92701 11.7805 1.54118 15.2983C1.15535 18.8162 1.97129 22.3611 3.85625 25.3563C3.90627 25.4354 3.93787 25.5249 3.94868 25.6179C3.9595 25.7109 3.94927 25.8052 3.91875 25.8938L1.69375 32.45L9.60625 30.875L9.71875 30.8438Z" fill="black"/>
<path d="M21.4812 25.7501C21.2897 25.7605 21.0978 25.7605 20.9062 25.7501C17.5875 25.3876 13.4062 22.1063 12.225 20.9501C11.0687 19.7938 7.78124 15.5876 7.42499 12.2688C7.13749 9.61883 8.90624 7.81883 9.68124 7.16258C10.0278 6.8649 10.4749 6.71066 10.9312 6.73133L12.6187 6.78758C12.7421 6.79215 12.8614 6.83318 12.9615 6.90548C13.0617 6.97778 13.1381 7.07812 13.1812 7.19383C13.5562 8.18758 14.7687 11.4938 14.7687 12.3501C14.7687 13.1001 14.1062 13.6813 13.5187 14.1938C13.3937 14.3001 13.225 14.4501 13.125 14.5563C13.7567 15.7107 14.5133 16.7922 15.3812 17.7813C16.3704 18.6492 17.4519 19.4058 18.6062 20.0376C18.7125 19.9313 18.8625 19.7626 18.9687 19.6438C19.4812 19.0563 20.0625 18.3938 20.8437 18.3938C21.7 18.3938 25.0062 19.6063 26 19.9813C26.1157 20.0245 26.216 20.1009 26.2883 20.201C26.3606 20.3011 26.4017 20.4204 26.4062 20.5438L26.4625 22.2313C26.4753 22.6865 26.322 23.1309 26.0312 23.4813C25.479 24.1626 24.7871 24.7177 24.0022 25.109C23.2173 25.5004 22.3577 25.719 21.4812 25.7501ZM13.1125 20.0501C14.1437 21.0813 18.1125 24.1751 21.0437 24.4938C23.1 24.7126 24.5375 23.2938 25.0625 22.6751C25.1562 22.5585 25.205 22.4121 25.2 22.2626L25.1562 21.0126C23.7513 20.4492 22.3054 19.9937 20.8312 19.6501C20.6312 19.6501 20.1375 20.2313 19.925 20.4751C19.5 20.9626 19.1625 21.3438 18.675 21.3438C17.8812 21.3438 15.1125 19.2938 14.4937 18.6751C13.875 18.0563 11.8437 15.2688 11.8437 14.5001C11.8437 14.0313 12.225 13.6938 12.7125 13.2501C12.95 13.0376 13.5187 12.5501 13.5375 12.3438C13.1938 10.8697 12.7383 9.42382 12.175 8.01883L10.925 7.97508C10.7755 7.97007 10.6291 8.01886 10.5125 8.11258C9.88749 8.63758 8.46874 10.0751 8.69374 12.1251C9.01249 15.0751 12.1062 19.0001 13.1375 20.0563L13.1125 20.0501Z" fill="black"/>
</svg>
