<svg width="34" height="31" viewBox="0 0 34 31" fill="none" xmlns="http://www.w3.org/2000/svg">
<path d="M32.726 1.43247C32.4677 1.2093 32.1532 1.0611 31.8167 1.00394C31.4802 0.946778 31.1344 0.982844 30.8169 1.10822L1.97988 12.4371C1.60291 12.5852 1.28403 12.8514 1.07096 13.1958C0.857884 13.5402 0.762073 13.9444 0.797864 14.3478C0.833655 14.7513 0.999122 15.1323 1.2695 15.4338C1.53989 15.7353 1.90065 15.9412 2.2978 16.0206L10.125 17.5862V27.2476C10.1211 27.6193 10.2295 27.9835 10.436 28.2926C10.6426 28.6016 10.9376 28.8412 11.2825 28.9798C11.5135 29.0765 11.7614 29.1267 12.0119 29.1273C12.2567 29.1266 12.4989 29.0772 12.7245 28.9821C12.95 28.887 13.1544 28.748 13.3259 28.5733L17.794 24.1051L24.3867 29.9068C24.7265 30.2085 25.1649 30.3753 25.6193 30.3758C25.8168 30.3756 26.013 30.3444 26.2009 30.2835C26.5108 30.1852 26.7895 30.0074 27.0092 29.7678C27.2289 29.5282 27.3819 29.2352 27.453 28.918L33.3301 3.27222C33.4069 2.93963 33.3911 2.59238 33.2846 2.26809C33.1781 1.94379 32.9849 1.65482 32.726 1.43247ZM2.04298 14.2373C2.02743 14.1023 2.05787 13.966 2.12938 13.8504C2.20089 13.7349 2.30928 13.6468 2.43704 13.6004L28.8707 3.21573L10.6051 16.4075L2.54293 14.7951C2.40901 14.7719 2.28681 14.7042 2.19609 14.603C2.10537 14.5018 2.05142 14.373 2.04298 14.2373ZM12.4419 27.6895C12.3545 27.7769 12.2432 27.8364 12.1219 27.8605C12.0007 27.8847 11.875 27.8723 11.7608 27.825C11.6466 27.7777 11.549 27.6976 11.4804 27.5948C11.4117 27.492 11.375 27.3712 11.375 27.2476V18.4564L16.8538 23.2777L12.4419 27.6895ZM32.1117 2.99299L26.2346 28.6387C26.2104 28.7443 26.1592 28.8417 26.086 28.9215C26.0128 29.0013 25.9202 29.0607 25.8172 29.0939C25.7141 29.1272 25.6042 29.1331 25.4982 29.111C25.3922 29.089 25.2937 29.0398 25.2125 28.9683L11.7508 17.122L32.0107 2.48999C32.064 2.56098 32.1007 2.643 32.1182 2.73004C32.1357 2.81708 32.1335 2.90692 32.1117 2.99299Z" fill="black"/>
</svg>
